<svg width="90" height="94" viewBox="0 0 90 94" fill="none" xmlns="http://www.w3.org/2000/svg">
<path d="M33.754 73.3271C31.5153 73.3271 29.5373 72.8978 27.82 72.0391C26.1333 71.1498 24.692 69.9844 23.496 68.5431C22.3307 67.0711 21.4567 65.4304 20.874 63.6211C20.2913 61.7811 20 59.9104 20 58.0091V44.2551C20 43.6418 20.046 43.0744 20.138 42.5531C20.2607 42.0011 20.5673 41.5564 21.058 41.2191C21.5487 40.8818 22.3613 40.7131 23.496 40.7131C24.6613 40.7131 25.4893 40.8818 25.98 41.2191C26.4707 41.5564 26.762 42.0011 26.854 42.5531C26.9767 43.0744 27.038 43.6571 27.038 44.3011V58.0091C27.038 59.3584 27.2527 60.6618 27.682 61.9191C28.142 63.1764 28.878 64.2191 29.89 65.0471C30.902 65.8751 32.236 66.2891 33.892 66.2891C35.3027 66.2891 36.514 65.9518 37.526 65.2771C38.538 64.5718 39.32 63.6058 39.872 62.3791C40.424 61.1218 40.7 59.6498 40.7 57.9631V43.9791C40.7 43.4271 40.7613 42.9058 40.884 42.4151C41.0067 41.9244 41.3133 41.5258 41.804 41.2191C42.2947 40.8818 43.1073 40.7131 44.242 40.7131C45.3767 40.7131 46.174 40.8971 46.634 41.2651C47.1247 41.6024 47.416 42.0318 47.508 42.5531C47.6307 43.0744 47.692 43.6571 47.692 44.3011V58.1011C47.692 60.0331 47.3853 61.9038 46.772 63.7131C46.1893 65.5224 45.3 67.1478 44.104 68.5891C42.9387 70.0304 41.482 71.1804 39.734 72.0391C38.0167 72.8978 36.0233 73.3271 33.754 73.3271Z" fill="#ED6436"/>
<path d="M55.754 73.3271C53.5153 73.3271 51.5373 72.8978 49.82 72.0391C48.1333 71.1498 46.692 69.9844 45.496 68.5431C44.3307 67.0711 43.4567 65.4304 42.874 63.6211C42.2913 61.7811 42 59.9104 42 58.0091V44.2551C42 43.6418 42.046 43.0744 42.138 42.5531C42.2607 42.0011 42.5673 41.5564 43.058 41.2191C43.5487 40.8818 44.3613 40.7131 45.496 40.7131C46.6613 40.7131 47.4893 40.8818 47.98 41.2191C48.4707 41.5564 48.762 42.0011 48.854 42.5531C48.9767 43.0744 49.038 43.6571 49.038 44.3011V58.0091C49.038 59.3584 49.2527 60.6618 49.682 61.9191C50.142 63.1764 50.878 64.2191 51.89 65.0471C52.902 65.8751 54.236 66.2891 55.892 66.2891C57.3027 66.2891 58.514 65.9518 59.526 65.2771C60.538 64.5718 61.32 63.6058 61.872 62.3791C62.424 61.1218 62.7 59.6498 62.7 57.9631V43.9791C62.7 43.4271 62.7613 42.9058 62.884 42.4151C63.0067 41.9244 63.3133 41.5258 63.804 41.2191C64.2947 40.8818 65.1073 40.7131 66.242 40.7131C67.3767 40.7131 68.174 40.8971 68.634 41.2651C69.1247 41.6024 69.416 42.0318 69.508 42.5531C69.6307 43.0744 69.692 43.6571 69.692 44.3011V58.1011C69.692 60.0331 69.3853 61.9038 68.772 63.7131C68.1893 65.5224 67.3 67.1478 66.104 68.5891C64.9387 70.0304 63.482 71.1804 61.734 72.0391C60.0167 72.8978 58.0233 73.3271 55.754 73.3271Z" fill="#ED6436"/>
<path fill-rule="evenodd" clip-rule="evenodd" d="M32.7628 27.3757C32.3221 27.0621 31.5788 26.941 31.0001 27.0227L30.7566 27.0571H30.5107C29.7472 27.0571 29.3865 27.2223 29.2385 27.3117C29.0907 27.401 28.9605 27.5321 28.8391 27.767C28.5379 28.3501 28.4599 29.2737 28.5668 29.9608C28.8641 31.8709 27.5567 33.6602 25.6467 33.9575C23.7367 34.2547 21.9474 32.9474 21.6501 31.0374C21.3969 29.4105 21.427 26.8631 22.6203 24.5536C23.2462 23.3422 24.21 22.1717 25.6177 21.3209C26.9644 20.507 28.5389 20.0935 30.2752 20.0594C32.0372 19.8624 34.6066 20.0964 36.8212 21.6723C39.3969 23.5051 40.7657 26.6193 40.4853 30.7369C40.354 32.6654 38.6842 34.1223 36.7556 33.991C34.8271 33.8597 33.3702 32.1899 33.5015 30.2613C33.581 29.0933 33.4148 28.4062 33.2597 28.0328C33.1143 27.6827 32.9355 27.4986 32.7628 27.3757Z" fill="#7AC143"/>
<path fill-rule="evenodd" clip-rule="evenodd" d="M59.7628 27.3757C59.3221 27.0621 58.5788 26.941 58.0001 27.0227L57.7566 27.0571H57.5107C56.7472 27.0571 56.3865 27.2223 56.2385 27.3117C56.0907 27.401 55.9605 27.5321 55.8392 27.767C55.5379 28.3501 55.4599 29.2737 55.5668 29.9608C55.8641 31.8709 54.5567 33.6602 52.6467 33.9575C50.7367 34.2547 48.9474 32.9474 48.6501 31.0374C48.3969 29.4105 48.427 26.8631 49.6203 24.5536C50.2463 23.3422 51.21 22.1717 52.6177 21.3209C53.9644 20.507 55.5389 20.0935 57.2753 20.0594C59.0372 19.8624 61.6067 20.0964 63.8212 21.6723C66.3969 23.5051 67.7657 26.6193 67.4853 30.7369C67.354 32.6654 65.6842 34.1223 63.7556 33.991C61.8271 33.8597 60.3702 32.1899 60.5015 30.2613C60.581 29.0933 60.4148 28.4062 60.2597 28.0328C60.1143 27.6827 59.9355 27.4986 59.7628 27.3757Z" fill="#7AC143"/>
<path fill-rule="evenodd" clip-rule="evenodd" d="M37.522 41.9991C37.522 40.0661 39.089 38.4991 41.022 38.4991H49.022C50.955 38.4991 52.522 40.0661 52.522 41.9991C52.522 43.9321 50.955 45.4991 49.022 45.4991H41.022C39.089 45.4991 37.522 43.9321 37.522 41.9991Z" fill="#7AC143"/>
</svg>
