<svg width="274" height="94" viewBox="0 0 274 94" fill="none" xmlns="http://www.w3.org/2000/svg">
<path d="M241.974 73.3731C240.349 73.3731 238.923 73.1738 237.696 72.7751C236.5 72.3764 235.473 71.9011 234.614 71.3491C233.786 70.7664 233.127 70.1991 232.636 69.6471C232.146 69.0951 231.808 68.6811 231.624 68.4051C231.103 67.7304 230.781 67.1478 230.658 66.6571C230.536 66.1358 230.597 65.6144 230.842 65.0931C231.118 64.5718 231.578 64.0044 232.222 63.3911C232.866 62.8391 233.464 62.5478 234.016 62.5171C234.599 62.4558 235.166 62.5938 235.718 62.9311C236.27 63.2684 236.807 63.7438 237.328 64.3571C238.064 65.2464 238.785 65.8751 239.49 66.2431C240.226 66.5804 240.993 66.7491 241.79 66.7491C242.802 66.7491 243.661 66.6264 244.366 66.3811C245.072 66.1358 245.608 65.7524 245.976 65.2311C246.344 64.6791 246.528 63.9891 246.528 63.1611C246.528 62.4864 246.268 61.9498 245.746 61.5511C245.256 61.1218 244.581 60.7538 243.722 60.4471C242.894 60.1404 241.959 59.8491 240.916 59.5731C239.904 59.2664 238.892 58.9138 237.88 58.5151C237.175 58.2698 236.5 57.9631 235.856 57.5951C235.212 57.2271 234.599 56.8131 234.016 56.3531C233.434 55.8931 232.928 55.3411 232.498 54.6971C232.1 54.0531 231.778 53.3171 231.532 52.4891C231.318 51.6611 231.21 50.7104 231.21 49.6371C231.21 47.8278 231.655 46.2178 232.544 44.8071C233.434 43.3964 234.66 42.2924 236.224 41.4951C237.819 40.6671 239.644 40.2531 241.698 40.2531C243.078 40.2531 244.274 40.3758 245.286 40.6211C246.329 40.8664 247.203 41.1578 247.908 41.4951C248.614 41.8324 249.166 42.1698 249.564 42.5071C249.994 42.8138 250.285 43.0591 250.438 43.2431C251.297 44.0404 251.772 44.7304 251.864 45.3131C251.956 45.8651 251.634 46.6471 250.898 47.6591C250.132 48.7324 249.365 49.3304 248.598 49.4531C247.862 49.5758 247.019 49.3151 246.068 48.6711C245.7 48.3338 245.332 48.0271 244.964 47.7511C244.596 47.4751 244.152 47.2604 243.63 47.1071C243.14 46.9231 242.48 46.8311 241.652 46.8311C241.162 46.8311 240.702 46.9078 240.272 47.0611C239.843 47.1838 239.475 47.3678 239.168 47.6131C238.862 47.8584 238.616 48.1651 238.432 48.5331C238.248 48.8704 238.156 49.2538 238.156 49.6831C238.156 50.3884 238.386 50.9558 238.846 51.3851C239.337 51.8144 239.966 52.1671 240.732 52.4431C241.53 52.6884 242.404 52.9338 243.354 53.1791C244.336 53.3938 245.332 53.6544 246.344 53.9611C247.264 54.2678 248.154 54.6511 249.012 55.1111C249.871 55.5404 250.638 56.0924 251.312 56.7671C251.987 57.4418 252.524 58.2851 252.922 59.2971C253.352 60.3091 253.566 61.5511 253.566 63.0231C253.566 64.8631 253.214 66.4424 252.508 67.7611C251.803 69.0798 250.868 70.1531 249.702 70.9811C248.537 71.8091 247.28 72.4071 245.93 72.7751C244.581 73.1738 243.262 73.3731 241.974 73.3731Z" fill="#ED6436"/>
<path d="M207.54 72.9131C206.436 72.9131 205.639 72.7444 205.148 72.4071C204.658 72.0698 204.351 71.6251 204.228 71.0731C204.136 70.5211 204.09 69.9538 204.09 69.3711V44.2091C204.09 43.6264 204.136 43.0744 204.228 42.5531C204.351 42.0318 204.658 41.6024 205.148 41.2651C205.639 40.9278 206.452 40.7591 207.586 40.7591H217.154C218.412 40.7591 219.7 40.9891 221.018 41.4491C222.337 41.9091 223.548 42.6144 224.652 43.5651C225.756 44.5158 226.646 45.6964 227.32 47.1071C227.995 48.5178 228.332 50.1891 228.332 52.1211C228.332 53.4091 228.133 54.6511 227.734 55.8471C227.366 57.0431 226.799 58.1471 226.032 59.1591C225.266 60.1711 224.315 61.0451 223.18 61.7811C222.046 62.4864 220.742 62.9924 219.27 63.2991H211.082V69.4171C211.082 69.9998 211.021 70.5671 210.898 71.1191C210.776 71.6404 210.469 72.0698 209.978 72.4071C209.488 72.7444 208.675 72.9131 207.54 72.9131ZM226.952 71.9931C225.818 72.8211 224.913 73.1431 224.238 72.9591C223.564 72.7751 222.858 72.1771 222.122 71.1651L214.026 59.5731L221.892 58.5611L227.826 67.0711C228.348 67.8071 228.67 68.4358 228.792 68.9571C228.946 69.4784 228.869 69.9691 228.562 70.4291C228.286 70.8891 227.75 71.4104 226.952 71.9931ZM211.082 56.3991H217.476C217.906 56.3991 218.35 56.3224 218.81 56.1691C219.27 55.9851 219.684 55.7244 220.052 55.3871C220.42 55.0498 220.727 54.6051 220.972 54.0531C221.218 53.5011 221.34 52.8418 221.34 52.0751C221.34 51.1858 221.156 50.4191 220.788 49.7751C220.451 49.1311 219.96 48.6404 219.316 48.3031C218.672 47.9351 217.921 47.7511 217.062 47.7511H211.082V56.3991Z" fill="#ED6436"/>
<path d="M185.899 73.3271C183.66 73.3271 181.682 72.8978 179.965 72.0391C178.278 71.1498 176.837 69.9844 175.641 68.5431C174.475 67.0711 173.601 65.4304 173.019 63.6211C172.436 61.7811 172.145 59.9104 172.145 58.0091V44.2551C172.145 43.6418 172.191 43.0744 172.283 42.5531C172.405 42.0011 172.712 41.5564 173.203 41.2191C173.693 40.8818 174.506 40.7131 175.641 40.7131C176.806 40.7131 177.634 40.8818 178.125 41.2191C178.615 41.5564 178.907 42.0011 178.999 42.5531C179.121 43.0744 179.183 43.6571 179.183 44.3011V58.0091C179.183 59.3584 179.397 60.6618 179.827 61.9191C180.287 63.1764 181.023 64.2191 182.035 65.0471C183.047 65.8751 184.381 66.2891 186.037 66.2891C187.447 66.2891 188.659 65.9518 189.671 65.2771C190.683 64.5718 191.465 63.6058 192.017 62.3791C192.569 61.1218 192.845 59.6498 192.845 57.9631V43.9791C192.845 43.4271 192.906 42.9058 193.029 42.4151C193.151 41.9244 193.458 41.5258 193.949 41.2191C194.439 40.8818 195.252 40.7131 196.387 40.7131C197.521 40.7131 198.319 40.8971 198.779 41.2651C199.269 41.6024 199.561 42.0318 199.653 42.5531C199.775 43.0744 199.837 43.6571 199.837 44.3011V58.1011C199.837 60.0331 199.53 61.9038 198.917 63.7131C198.334 65.5224 197.445 67.1478 196.249 68.5891C195.083 70.0304 193.627 71.1804 191.879 72.0391C190.161 72.8978 188.168 73.3271 185.899 73.3271Z" fill="#ED6436"/>
<path d="M147.482 72.9131C146.378 72.9131 145.581 72.7598 145.09 72.4531C144.599 72.1158 144.293 71.6711 144.17 71.1191C144.078 70.5671 144.032 69.9998 144.032 69.4171V44.2551C144.032 42.9058 144.293 41.9858 144.814 41.4951C145.335 41.0044 146.271 40.7591 147.62 40.7591H165.008C165.621 40.7591 166.189 40.8204 166.71 40.9431C167.231 41.0351 167.645 41.3264 167.952 41.8171C168.289 42.3078 168.458 43.1358 168.458 44.3011C168.458 45.4051 168.289 46.2024 167.952 46.6931C167.615 47.1838 167.17 47.4904 166.618 47.6131C166.097 47.7051 165.529 47.7511 164.916 47.7511H151.024V53.6851H160.454C161.067 53.6851 161.604 53.7311 162.064 53.8231C162.555 53.9151 162.938 54.1758 163.214 54.6051C163.49 55.0344 163.628 55.7551 163.628 56.7671C163.628 57.7484 163.49 58.4538 163.214 58.8831C162.938 59.2818 162.555 59.5271 162.064 59.6191C161.604 59.7111 161.052 59.7571 160.408 59.7571H151.024V69.4631C151.024 70.0458 150.963 70.6131 150.84 71.1651C150.717 71.6864 150.411 72.1158 149.92 72.4531C149.46 72.7598 148.647 72.9131 147.482 72.9131Z" fill="#ED6436"/>
<path d="M125.236 73.3731C123.028 73.3731 120.943 72.9591 118.98 72.1311C117.048 71.2724 115.346 70.1071 113.874 68.6351C112.433 67.1324 111.283 65.3998 110.424 63.4371C109.596 61.4744 109.182 59.3584 109.182 57.0891C109.182 54.7891 109.581 52.6424 110.378 50.6491C111.206 48.6251 112.325 46.8464 113.736 45.3131C115.177 43.7798 116.849 42.5838 118.75 41.7251C120.651 40.8664 122.691 40.4371 124.868 40.4371C127.076 40.4371 129.146 40.8664 131.078 41.7251C133.041 42.5531 134.743 43.7184 136.184 45.2211C137.625 46.7238 138.76 48.4718 139.588 50.4651C140.447 52.4584 140.876 54.6204 140.876 56.9511C140.876 59.1898 140.462 61.3058 139.634 63.2991C138.837 65.2618 137.717 67.0098 136.276 68.5431C134.835 70.0458 133.163 71.2264 131.262 72.0851C129.391 72.9438 127.383 73.3731 125.236 73.3731ZM125.006 66.3811C126.233 66.3811 127.383 66.1358 128.456 65.6451C129.529 65.1544 130.465 64.4951 131.262 63.6671C132.09 62.8084 132.719 61.8118 133.148 60.6771C133.608 59.5118 133.838 58.2544 133.838 56.9051C133.838 55.6171 133.608 54.4058 133.148 53.2711C132.688 52.1058 132.044 51.0938 131.216 50.2351C130.419 49.3458 129.483 48.6558 128.41 48.1651C127.367 47.6744 126.233 47.4291 125.006 47.4291C123.81 47.4291 122.675 47.6744 121.602 48.1651C120.559 48.6558 119.624 49.3458 118.796 50.2351C117.999 51.0938 117.355 52.1058 116.864 53.2711C116.404 54.4058 116.174 55.6324 116.174 56.9511C116.174 58.2391 116.404 59.4658 116.864 60.6311C117.355 61.7658 117.999 62.7624 118.796 63.6211C119.624 64.4798 120.559 65.1544 121.602 65.6451C122.645 66.1358 123.779 66.3811 125.006 66.3811Z" fill="#ED6436"/>
<path d="M91.904 73.3731C89.696 73.3731 87.6107 72.9591 85.648 72.1311C83.716 71.2724 82.014 70.1071 80.542 68.6351C79.1007 67.1324 77.9507 65.3998 77.092 63.4371C76.264 61.4744 75.85 59.3584 75.85 57.0891C75.85 54.7891 76.2487 52.6424 77.046 50.6491C77.874 48.6251 78.9933 46.8464 80.404 45.3131C81.8453 43.7798 83.5167 42.5838 85.418 41.7251C87.3193 40.8664 89.3587 40.4371 91.536 40.4371C93.744 40.4371 95.814 40.8664 97.746 41.7251C99.7087 42.5531 101.411 43.7184 102.852 45.2211C104.293 46.7238 105.428 48.4718 106.256 50.4651C107.115 52.4584 107.544 54.6204 107.544 56.9511C107.544 59.1898 107.13 61.3058 106.302 63.2991C105.505 65.2618 104.385 67.0098 102.944 68.5431C101.503 70.0458 99.8313 71.2264 97.93 72.0851C96.0593 72.9438 94.0507 73.3731 91.904 73.3731ZM91.674 66.3811C92.9007 66.3811 94.0507 66.1358 95.124 65.6451C96.1973 65.1544 97.1327 64.4951 97.93 63.6671C98.758 62.8084 99.3867 61.8118 99.816 60.6771C100.276 59.5118 100.506 58.2544 100.506 56.9051C100.506 55.6171 100.276 54.4058 99.816 53.2711C99.356 52.1058 98.712 51.0938 97.884 50.2351C97.0867 49.3458 96.1513 48.6558 95.078 48.1651C94.0353 47.6744 92.9007 47.4291 91.674 47.4291C90.478 47.4291 89.3433 47.6744 88.27 48.1651C87.2273 48.6558 86.292 49.3458 85.464 50.2351C84.6667 51.0938 84.0227 52.1058 83.532 53.2711C83.072 54.4058 82.842 55.6324 82.842 56.9511C82.842 58.2391 83.072 59.4658 83.532 60.6311C84.0227 61.7658 84.6667 62.7624 85.464 63.6211C86.292 64.4798 87.2273 65.1544 88.27 65.6451C89.3127 66.1358 90.4473 66.3811 91.674 66.3811Z" fill="#ED6436"/>
<path d="M33.754 73.3271C31.5153 73.3271 29.5373 72.8978 27.82 72.0391C26.1333 71.1498 24.692 69.9844 23.496 68.5431C22.3307 67.0711 21.4567 65.4304 20.874 63.6211C20.2913 61.7811 20 59.9104 20 58.0091V44.2551C20 43.6418 20.046 43.0744 20.138 42.5531C20.2607 42.0011 20.5673 41.5564 21.058 41.2191C21.5487 40.8818 22.3613 40.7131 23.496 40.7131C24.6613 40.7131 25.4893 40.8818 25.98 41.2191C26.4707 41.5564 26.762 42.0011 26.854 42.5531C26.9767 43.0744 27.038 43.6571 27.038 44.3011V58.0091C27.038 59.3584 27.2527 60.6618 27.682 61.9191C28.142 63.1764 28.878 64.2191 29.89 65.0471C30.902 65.8751 32.236 66.2891 33.892 66.2891C35.3027 66.2891 36.514 65.9518 37.526 65.2771C38.538 64.5718 39.32 63.6058 39.872 62.3791C40.424 61.1218 40.7 59.6498 40.7 57.9631V43.9791C40.7 43.4271 40.7613 42.9058 40.884 42.4151C41.0067 41.9244 41.3133 41.5258 41.804 41.2191C42.2947 40.8818 43.1073 40.7131 44.242 40.7131C45.3767 40.7131 46.174 40.8971 46.634 41.2651C47.1247 41.6024 47.416 42.0318 47.508 42.5531C47.6307 43.0744 47.692 43.6571 47.692 44.3011V58.1011C47.692 60.0331 47.3853 61.9038 46.772 63.7131C46.1893 65.5224 45.3 67.1478 44.104 68.5891C42.9387 70.0304 41.482 71.1804 39.734 72.0391C38.0167 72.8978 36.0233 73.3271 33.754 73.3271Z" fill="#ED6436"/>
<path d="M55.754 73.3271C53.5153 73.3271 51.5373 72.8978 49.82 72.0391C48.1333 71.1498 46.692 69.9844 45.496 68.5431C44.3307 67.0711 43.4567 65.4304 42.874 63.6211C42.2913 61.7811 42 59.9104 42 58.0091V44.2551C42 43.6418 42.046 43.0744 42.138 42.5531C42.2607 42.0011 42.5673 41.5564 43.058 41.2191C43.5487 40.8818 44.3613 40.7131 45.496 40.7131C46.6613 40.7131 47.4893 40.8818 47.98 41.2191C48.4707 41.5564 48.762 42.0011 48.854 42.5531C48.9767 43.0744 49.038 43.6571 49.038 44.3011V58.0091C49.038 59.3584 49.2527 60.6618 49.682 61.9191C50.142 63.1764 50.878 64.2191 51.89 65.0471C52.902 65.8751 54.236 66.2891 55.892 66.2891C57.3027 66.2891 58.514 65.9518 59.526 65.2771C60.538 64.5718 61.32 63.6058 61.872 62.3791C62.424 61.1218 62.7 59.6498 62.7 57.9631V43.9791C62.7 43.4271 62.7613 42.9058 62.884 42.4151C63.0067 41.9244 63.3133 41.5258 63.804 41.2191C64.2947 40.8818 65.1073 40.7131 66.242 40.7131C67.3767 40.7131 68.174 40.8971 68.634 41.2651C69.1247 41.6024 69.416 42.0318 69.508 42.5531C69.6307 43.0744 69.692 43.6571 69.692 44.3011V58.1011C69.692 60.0331 69.3853 61.9038 68.772 63.7131C68.1893 65.5224 67.3 67.1478 66.104 68.5891C64.9387 70.0304 63.482 71.1804 61.734 72.0391C60.0167 72.8978 58.0233 73.3271 55.754 73.3271Z" fill="#ED6436"/>
<path fill-rule="evenodd" clip-rule="evenodd" d="M32.7628 27.3757C32.3221 27.0621 31.5788 26.941 31.0001 27.0227L30.7566 27.0571H30.5107C29.7472 27.0571 29.3865 27.2223 29.2385 27.3117C29.0907 27.401 28.9605 27.5321 28.8391 27.767C28.5379 28.3501 28.4599 29.2737 28.5668 29.9608C28.8641 31.8709 27.5567 33.6602 25.6467 33.9575C23.7367 34.2547 21.9474 32.9474 21.6501 31.0374C21.3969 29.4105 21.427 26.8631 22.6203 24.5536C23.2462 23.3422 24.21 22.1717 25.6177 21.3209C26.9644 20.507 28.5389 20.0935 30.2752 20.0594C32.0372 19.8624 34.6066 20.0964 36.8212 21.6723C39.3969 23.5051 40.7657 26.6193 40.4853 30.7369C40.354 32.6654 38.6842 34.1223 36.7556 33.991C34.8271 33.8597 33.3702 32.1899 33.5015 30.2613C33.581 29.0933 33.4148 28.4062 33.2597 28.0328C33.1143 27.6827 32.9355 27.4986 32.7628 27.3757Z" fill="#7AC143"/>
<path fill-rule="evenodd" clip-rule="evenodd" d="M59.7628 27.3757C59.3221 27.0621 58.5788 26.941 58.0001 27.0227L57.7566 27.0571H57.5107C56.7472 27.0571 56.3865 27.2223 56.2385 27.3117C56.0907 27.401 55.9605 27.5321 55.8391 27.767C55.5379 28.3501 55.4599 29.2737 55.5668 29.9608C55.8641 31.8709 54.5567 33.6602 52.6467 33.9575C50.7367 34.2547 48.9474 32.9474 48.6501 31.0374C48.3969 29.4105 48.427 26.8631 49.6203 24.5536C50.2462 23.3422 51.21 22.1717 52.6177 21.3209C53.9644 20.507 55.5389 20.0935 57.2752 20.0594C59.0372 19.8624 61.6066 20.0964 63.8212 21.6723C66.3969 23.5051 67.7657 26.6193 67.4853 30.7369C67.354 32.6654 65.6842 34.1223 63.7556 33.991C61.8271 33.8597 60.3702 32.1899 60.5015 30.2613C60.581 29.0933 60.4148 28.4062 60.2597 28.0328C60.1143 27.6827 59.9355 27.4986 59.7628 27.3757Z" fill="#7AC143"/>
<path fill-rule="evenodd" clip-rule="evenodd" d="M37.522 41.9991C37.522 40.0661 39.089 38.4991 41.022 38.4991H49.022C50.955 38.4991 52.522 40.0661 52.522 41.9991C52.522 43.9321 50.955 45.4991 49.022 45.4991H41.022C39.089 45.4991 37.522 43.9321 37.522 41.9991Z" fill="#7AC143"/>
</svg>
